<svg width="22" height="22" viewBox="0 0 22 22" fill="none" xmlns="http://www.w3.org/2000/svg">
<path fill-rule="evenodd" clip-rule="evenodd" d="M6.64587 9.16667C6.64587 6.76193 8.59529 4.8125 11 4.8125C13.4048 4.8125 15.3542 6.76193 15.3542 9.16667C15.3542 11.5714 13.4048 13.5208 11 13.5208C8.59529 13.5208 6.64587 11.5714 6.64587 9.16667ZM11 6.1875C9.35469 6.1875 8.02089 7.52133 8.02089 9.16667C8.02089 10.812 9.35469 12.1459 11 12.1459C12.6454 12.1459 13.9792 10.812 13.9792 9.16667C13.9792 7.52133 12.6454 6.1875 11 6.1875Z" fill="white"/>
<path fill-rule="evenodd" clip-rule="evenodd" d="M6.64587 9.16667C6.64587 6.76193 8.59529 4.8125 11 4.8125C13.4048 4.8125 15.3542 6.76193 15.3542 9.16667C15.3542 11.5714 13.4048 13.5208 11 13.5208C8.59529 13.5208 6.64587 11.5714 6.64587 9.16667ZM11 6.1875C9.35469 6.1875 8.02089 7.52133 8.02089 9.16667C8.02089 10.812 9.35469 12.1459 11 12.1459C12.6454 12.1459 13.9792 10.812 13.9792 9.16667C13.9792 7.52133 12.6454 6.1875 11 6.1875Z" fill="black" fill-opacity="0.2"/>
<path fill-rule="evenodd" clip-rule="evenodd" d="M3.23067 8.1188C3.55547 4.17839 6.84825 1.14584 10.802 1.14584H11.198C15.1517 1.14584 18.4445 4.17839 18.7693 8.1188C18.9438 10.2355 18.29 12.3373 16.9455 13.9815L12.5519 19.3548C11.7498 20.3357 10.2502 20.3357 9.44811 19.3548L5.05447 13.9815C3.71003 12.3373 3.05619 10.2355 3.23067 8.1188ZM10.802 2.52084C7.56385 2.52084 4.86703 5.00452 4.60102 8.23174C4.45581 9.9934 4.99999 11.7427 6.11892 13.1111L10.5126 18.4845C10.7645 18.7925 11.2355 18.7925 11.4874 18.4845L15.8811 13.1111C17 11.7427 17.5442 9.9934 17.399 8.23174C17.133 5.00452 14.4361 2.52084 11.198 2.52084H10.802Z" fill="white"/>
<path fill-rule="evenodd" clip-rule="evenodd" d="M3.23067 8.1188C3.55547 4.17839 6.84825 1.14584 10.802 1.14584H11.198C15.1517 1.14584 18.4445 4.17839 18.7693 8.1188C18.9438 10.2355 18.29 12.3373 16.9455 13.9815L12.5519 19.3548C11.7498 20.3357 10.2502 20.3357 9.44811 19.3548L5.05447 13.9815C3.71003 12.3373 3.05619 10.2355 3.23067 8.1188ZM10.802 2.52084C7.56385 2.52084 4.86703 5.00452 4.60102 8.23174C4.45581 9.9934 4.99999 11.7427 6.11892 13.1111L10.5126 18.4845C10.7645 18.7925 11.2355 18.7925 11.4874 18.4845L15.8811 13.1111C17 11.7427 17.5442 9.9934 17.399 8.23174C17.133 5.00452 14.4361 2.52084 11.198 2.52084H10.802Z" fill="black" fill-opacity="0.2"/>
</svg>
